<svg width="61" height="61" viewBox="0 0 61 61" fill="none" xmlns="http://www.w3.org/2000/svg">
<rect width="61" height="61" fill="black"/>
<g clip-path="url(#clip0_81_43)">
<path d="M33.9793 45L33.7741 27.2249H29.0967V24.3163H33.9793V22.3898C33.9793 20.4237 34.6303 18.8672 35.9323 17.7203C37.2653 16.5734 39.0478 16 41.2799 16H44.9999V18.9082H41.4193C40.3033 18.9082 39.4043 19.2359 38.7223 19.8912C38.0403 20.5193 37.6993 21.3795 37.6993 22.4718V24.3559H44.9999V27.2641H37.6993V45H33.9793Z" fill="white"/>
<path d="M20.6224 17.7059H24.1442V24.3139H30.9677V27.228H24.1442V38.3509C24.1442 39.5002 24.4524 40.4031 25.0687 41.0598C25.7143 41.6892 26.5948 42.0038 27.71 42.0038H30.9677V45H27.578C25.4649 45 23.7774 44.4254 22.5154 43.2761C21.2534 42.0997 20.6224 40.5125 20.6224 38.5151V27.228H16V24.3139H20.6224V17.7059Z" fill="white"/>
</g>
<defs>
<clipPath id="clip0_81_43">
<rect width="29" height="29" fill="white" transform="translate(16 16)"/>
</clipPath>
</defs>
</svg>
